<svg width="50" height="51" viewBox="0 0 50 51" fill="none" xmlns="http://www.w3.org/2000/svg">
<circle cx="25" cy="25" r="25" fill="white"/>
<path d="M43.4844 11.8009C43.5723 11.8888 43.5723 11.8888 43.5845 12.045C43.5839 12.5079 43.5471 12.9474 43.4686 13.4032C43.4574 13.4711 43.4461 13.5389 43.4345 13.6089C43.3971 13.8322 43.3585 14.0553 43.3196 14.2783C43.3062 14.3559 43.2928 14.4335 43.279 14.5134C42.8069 17.2359 42.3046 20.003 41.375 22.6114C41.3424 22.7036 41.3099 22.7958 41.2763 22.8908C40.4048 25.3252 39.3633 27.7239 37.5957 29.6427C37.4836 29.7657 37.4836 29.7657 37.3691 29.8913C35.9491 31.3793 33.9478 32.7665 31.8293 32.9102C30.1623 32.9469 28.8546 32.7479 27.3125 32.1036C26.8605 33.1369 26.7679 34.2843 26.6423 35.394C26.6315 35.4891 26.6207 35.5842 26.6096 35.6822C26.4494 37.1684 26.4161 38.6465 26.4171 40.1401C26.4171 40.2339 26.417 40.3277 26.4169 40.4243C26.417 41.8777 26.4655 43.3205 26.5709 44.7698C26.6105 45.324 26.6187 45.8744 26.6094 46.4298C26.2798 46.5287 26.2798 46.5287 26.082 46.4298C26.0473 46.2608 26.0473 46.2608 26.0295 46.0377C26.0226 45.9543 26.0156 45.871 26.0084 45.785C26.0019 45.6969 25.9954 45.6088 25.9887 45.5179C25.9818 45.4359 25.975 45.3539 25.9679 45.2694C25.9449 44.9825 25.9252 44.6955 25.9063 44.4083C25.9022 44.3488 25.8982 44.2894 25.8941 44.2281C25.8395 43.4031 25.8143 42.5833 25.8215 41.7565C25.8221 41.5027 25.8223 41.2489 25.8225 40.995C25.8234 40.8236 25.8258 40.6522 25.8295 40.4808C25.8532 39.301 25.7355 38.5193 24.9648 37.6014C24.7819 37.381 24.6181 37.1477 24.4506 36.9156C23.9029 36.1985 23.3347 35.505 22.7257 34.8392C22.6615 34.7686 22.6615 34.7686 22.596 34.6966C22.3122 34.3902 22.0132 34.123 21.6875 33.8614C21.6637 33.903 21.6399 33.9446 21.6154 33.9874C20.9217 35.0529 19.5077 35.6806 18.3007 35.9357C16.1665 36.2813 14.0652 35.563 12.3395 34.3227C11.9101 33.9961 11.5258 33.6228 11.1406 33.2462C11.0668 33.1778 10.9929 33.1093 10.9168 33.0388C9.13603 31.3488 7.89631 29.0231 6.83404 26.835C6.74791 26.6581 6.66037 26.482 6.57273 26.3059C6.12727 25.3993 5.72703 24.4724 5.33308 23.5425C5.27188 23.3983 5.2103 23.2543 5.14835 23.1105C5.06063 22.9064 4.97449 22.7017 4.88873 22.4968C4.84856 22.4043 4.84856 22.4043 4.80758 22.31C4.66603 21.9662 4.60428 21.7387 4.72463 21.381C5.05406 21.3251 5.38371 21.2706 5.71339 21.2162C5.8485 21.1932 5.8485 21.1932 5.98634 21.1698C7.46858 20.9273 8.93708 20.8225 10.4383 20.8259C10.6953 20.8262 10.9522 20.8241 11.2091 20.8219C14.4371 20.811 17.7296 21.5348 20.1055 23.8419C20.1721 23.9021 20.2387 23.9622 20.3074 24.0242C21.7291 25.3504 22.7794 27.5257 22.851 29.4748C22.8733 30.656 22.8345 31.7115 22.2753 32.7793C22.1081 33.0425 22.1081 33.0425 22.1448 33.2464C22.2273 33.4532 22.3229 33.5577 22.484 33.7107C22.5392 33.7641 22.5943 33.8174 22.6511 33.8724C22.7102 33.9286 22.7692 33.9848 22.8301 34.0427C23.3699 34.5701 23.8641 35.1078 24.3242 35.7071C24.4207 35.8315 24.5172 35.9559 24.6137 36.0803C24.8131 36.3388 25.0124 36.5974 25.2104 36.8569C25.2513 36.9106 25.2923 36.9643 25.3346 37.0196C25.5032 37.2512 25.6606 37.4895 25.8184 37.7286C25.825 37.6469 25.8316 37.5651 25.8384 37.4808C26.0632 34.7315 26.0632 34.7315 26.2084 33.812C26.223 33.7166 26.223 33.7166 26.2379 33.6193C26.2926 33.2927 26.3692 32.9866 26.4745 32.6725C26.5962 32.2972 26.6879 31.9734 26.6973 31.5763C26.477 31.2191 26.188 30.9876 25.8658 30.729C24.483 29.5076 23.9224 27.3936 23.8059 25.6224C23.6784 22.8025 24.7165 19.9221 26.5215 17.7775C26.5946 17.686 26.5946 17.686 26.6691 17.5928C26.9914 17.1973 27.359 16.871 27.752 16.547C27.8377 16.4745 27.9235 16.402 28.0119 16.3273C28.8319 15.6481 29.7149 15.115 30.6524 14.6134C30.7404 14.5657 30.7404 14.5657 30.8302 14.517C34.0244 12.814 37.8344 12.2493 41.386 11.9108C41.4459 11.905 41.5059 11.8993 41.5676 11.8934C42.2074 11.8331 42.8416 11.776 43.4844 11.8009Z" fill="#8FE777"/>
<path d="M19.4023 23.8418C21.0531 25.2792 22.1744 27.3712 22.3906 29.5547C22.4678 30.725 22.2306 31.772 21.6875 32.8067C21.6295 32.8357 21.5715 32.8647 21.5117 32.8945C21.3725 32.7811 21.2334 32.6675 21.0942 32.554C21.0052 32.4813 20.9161 32.4087 20.8244 32.3339C20.6472 32.1886 20.4725 32.0415 20.2984 31.8924C18.6413 30.4763 16.7639 29.3227 14.8705 28.2528C14.7769 28.1996 14.6833 28.1465 14.5869 28.0917C14.4991 28.0428 14.4113 27.9939 14.3208 27.9435C14.2434 27.9002 14.1659 27.857 14.0861 27.8124C13.8643 27.7085 13.6671 27.6581 13.4258 27.6211C13.4258 27.7371 13.4258 27.8531 13.4258 27.9727C13.485 27.995 13.5443 28.0173 13.6053 28.0403C15.5584 28.853 17.3722 30.1295 19.0508 31.4004C19.1067 31.4425 19.1626 31.4846 19.2202 31.528C19.9635 32.0908 20.6591 32.6931 21.3359 33.334C20.711 34.4802 19.6546 35.0036 18.441 35.3939C16.5767 35.8735 14.8271 35.234 13.2225 34.3087C12.5469 33.8803 11.9776 33.3595 11.4043 32.8067C11.3431 32.751 11.2819 32.6954 11.2189 32.6381C10.188 31.6732 9.41314 30.3993 8.67969 29.2031C8.61859 29.1039 8.61859 29.1039 8.55626 29.0027C7.27329 26.897 5.79589 24.243 5.25195 21.8203C5.9226 21.6146 6.60035 21.536 7.29541 21.4578C7.39914 21.4461 7.39914 21.4461 7.50496 21.4342C11.5382 20.9909 16.1391 21.1266 19.4023 23.8418Z" fill="#8FE677"/>
<path d="M43.4844 11.8009C43.5723 11.8888 43.5723 11.8888 43.5845 12.045C43.5839 12.5079 43.5471 12.9474 43.4686 13.4032C43.4574 13.4711 43.4461 13.5389 43.4345 13.6089C43.3971 13.8322 43.3585 14.0553 43.3196 14.2783C43.3062 14.3559 43.2928 14.4335 43.279 14.5134C42.8069 17.2359 42.3046 20.003 41.375 22.6114C41.3424 22.7036 41.3099 22.7958 41.2763 22.8908C40.4048 25.3252 39.3633 27.7239 37.5957 29.6427C37.4836 29.7657 37.4836 29.7657 37.3691 29.8913C35.9491 31.3793 33.9478 32.7665 31.8293 32.9102C30.1623 32.9469 28.8546 32.7479 27.3125 32.1036C26.8605 33.1369 26.7679 34.2843 26.6423 35.394C26.6315 35.4891 26.6207 35.5842 26.6096 35.6822C26.4494 37.1684 26.4161 38.6465 26.4171 40.1401C26.4171 40.2339 26.417 40.3277 26.4169 40.4243C26.417 41.8777 26.4655 43.3205 26.5709 44.7698C26.6105 45.324 26.6187 45.8744 26.6094 46.4298C26.2798 46.5287 26.2798 46.5287 26.082 46.4298C26.0473 46.2608 26.0473 46.2608 26.0295 46.0377C26.0226 45.9543 26.0156 45.871 26.0084 45.785C26.0019 45.6969 25.9954 45.6088 25.9887 45.5179C25.9818 45.4359 25.975 45.3539 25.9679 45.2694C25.9449 44.9825 25.9252 44.6955 25.9063 44.4083C25.9022 44.3488 25.8982 44.2894 25.8941 44.2281C25.8395 43.4031 25.8143 42.5833 25.8215 41.7565C25.8221 41.5027 25.8223 41.2489 25.8225 40.995C25.8234 40.8236 25.8258 40.6522 25.8295 40.4808C25.8532 39.301 25.7355 38.5193 24.9648 37.6014C24.7819 37.381 24.6181 37.1477 24.4506 36.9156C23.9029 36.1985 23.3347 35.505 22.7257 34.8392C22.6615 34.7686 22.6615 34.7686 22.596 34.6966C22.3122 34.3902 22.0132 34.123 21.6875 33.8614C21.6637 33.903 21.6399 33.9446 21.6154 33.9874C20.9217 35.0529 19.5077 35.6806 18.3007 35.9357C16.1665 36.2813 14.0652 35.563 12.3395 34.3227C11.9101 33.9961 11.5258 33.6228 11.1406 33.2462C11.0668 33.1778 10.9929 33.1093 10.9168 33.0388C9.13603 31.3488 7.89631 29.0231 6.83404 26.835C6.74791 26.6581 6.66037 26.482 6.57273 26.3059C6.12727 25.3993 5.72703 24.4724 5.33308 23.5425C5.27188 23.3983 5.2103 23.2543 5.14835 23.1105C5.06063 22.9064 4.97449 22.7017 4.88873 22.4968C4.84856 22.4043 4.84856 22.4043 4.80758 22.31C4.66603 21.9662 4.60428 21.7387 4.72463 21.381C5.05406 21.3251 5.38371 21.2706 5.71339 21.2162C5.8485 21.1932 5.8485 21.1932 5.98634 21.1698C7.46858 20.9273 8.93708 20.8225 10.4383 20.8259C10.6953 20.8262 10.9522 20.8241 11.2091 20.8219C14.4371 20.811 17.7296 21.5348 20.1055 23.8419C20.1721 23.9021 20.2387 23.9622 20.3074 24.0242C21.7291 25.3504 22.7794 27.5257 22.851 29.4748C22.8733 30.656 22.8345 31.7115 22.2753 32.7793C22.1081 33.0425 22.1081 33.0425 22.1448 33.2464C22.2273 33.4532 22.3229 33.5577 22.484 33.7107C22.5392 33.7641 22.5943 33.8174 22.6511 33.8724C22.7102 33.9286 22.7692 33.9848 22.8301 34.0427C23.3699 34.5701 23.8641 35.1078 24.3242 35.7071C24.4207 35.8315 24.5172 35.9559 24.6137 36.0803C24.8131 36.3388 25.0124 36.5974 25.2104 36.8569C25.2513 36.9106 25.2923 36.9643 25.3346 37.0196C25.5032 37.2512 25.6606 37.4895 25.8184 37.7286C25.825 37.6469 25.8316 37.5651 25.8384 37.4808C26.0632 34.7315 26.0632 34.7315 26.2084 33.812C26.223 33.7166 26.223 33.7166 26.2379 33.6193C26.2926 33.2927 26.3692 32.9866 26.4745 32.6725C26.5962 32.2972 26.6879 31.9734 26.6973 31.5763C26.477 31.2191 26.188 30.9876 25.8658 30.729C24.483 29.5076 23.9224 27.3936 23.8059 25.6224C23.6784 22.8025 24.7165 19.9221 26.5215 17.7775C26.5946 17.686 26.5946 17.686 26.6691 17.5928C26.9914 17.1973 27.359 16.871 27.752 16.547C27.8377 16.4745 27.9235 16.402 28.0119 16.3273C28.8319 15.6481 29.7149 15.115 30.6524 14.6134C30.7404 14.5657 30.7404 14.5657 30.8302 14.517C34.0244 12.814 37.8344 12.2493 41.386 11.9108C41.4459 11.905 41.5059 11.8993 41.5676 11.8934C42.2074 11.8331 42.8416 11.776 43.4844 11.8009ZM27.6641 17.338C27.5917 17.4047 27.5193 17.4715 27.4447 17.5402C25.541 19.3548 24.389 22.0871 24.3064 24.7105C24.2695 27.1734 25.0359 29.0927 26.71 30.901C26.8581 31.0686 26.8581 31.0686 27.0488 31.0489C27.0651 31.0036 27.0813 30.9583 27.098 30.9116C27.9632 28.5185 29.1053 26.2807 30.5645 24.1935C30.6028 24.1379 30.6412 24.0824 30.6807 24.0252C31.2535 23.196 31.8469 22.3886 32.4782 21.6029C32.5775 21.4794 32.6762 21.3554 32.7748 21.2313C32.8877 21.0893 33.0011 20.9478 33.115 20.8066C33.2442 20.6458 33.3719 20.4838 33.4988 20.3211C33.6044 20.1877 33.6044 20.1877 33.7121 20.0516C33.7761 19.9698 33.8401 19.888 33.906 19.8038C33.9635 19.7442 34.0209 19.6846 34.0801 19.6232C34.1671 19.6232 34.2541 19.6232 34.3438 19.6232C34.3011 20.0246 34.1626 20.1962 33.8823 20.4801C33.3341 21.056 32.8616 21.6835 32.3864 22.32C32.2842 22.4568 32.1817 22.5935 32.079 22.7299C30.6466 24.6313 29.4138 26.6153 28.3727 28.7583C28.326 28.854 28.2793 28.9496 28.2311 29.0482C27.9933 29.5463 27.7747 30.049 27.5813 30.5659C27.5258 30.714 27.5258 30.714 27.4692 30.8651C27.3969 31.1506 27.3851 31.3017 27.4883 31.5763C27.7274 31.7251 27.9319 31.8264 28.1914 31.9279C28.2699 31.9588 28.3485 31.9897 28.4293 32.0216C30.3151 32.7057 32.1768 32.5326 33.9922 31.7521C34.7671 31.3847 35.4557 30.9083 36.1016 30.3458C36.1736 30.2844 36.2457 30.223 36.3199 30.1597C38.3644 28.3756 39.5674 26.0046 40.4961 23.4904C40.5312 23.3973 40.5664 23.3043 40.6025 23.2084C41.7193 20.2444 42.3237 17.1551 42.8692 14.0421C42.8874 13.939 42.9057 13.8359 42.9245 13.7296C43.0048 13.2561 43.067 12.8086 43.0449 12.3282C37.8336 12.2081 31.5135 13.6961 27.6641 17.338ZM7.29543 21.4579C7.1939 21.4694 7.1939 21.4694 7.09031 21.4811C6.46269 21.5534 5.85719 21.6348 5.25197 21.8204C5.66048 23.1094 6.21703 24.3321 6.78164 25.5584C6.90581 25.8284 7.02863 26.099 7.15123 26.3698C7.90825 28.0214 8.8375 29.5827 9.91017 31.0489C9.9484 31.1014 9.98662 31.1539 10.026 31.208C11.5765 33.3147 13.6283 34.976 16.2417 35.4967C17.7703 35.7004 19.2724 35.3319 20.5065 34.3933C20.8845 34.0752 21.1615 33.7994 21.336 33.3341C20.7514 32.7006 20.087 32.1826 19.4024 31.6642C19.3389 31.6158 19.2755 31.5675 19.2102 31.5177C17.6852 30.3591 16.0826 29.3709 14.413 28.4352C14.2296 28.3316 14.0482 28.2251 13.8666 28.1183C13.6263 27.9587 13.6263 27.9587 13.4258 27.9728C13.4258 27.8568 13.4258 27.7407 13.4258 27.6212C14.0335 27.7967 14.5641 28.0494 15.1122 28.3628C15.2408 28.436 15.2408 28.436 15.372 28.5108C17.4149 29.6961 19.461 31.0343 21.1736 32.6684C21.3375 32.8256 21.3375 32.8256 21.5996 32.8946C21.6694 32.7574 21.739 32.6201 21.8084 32.4827C21.8665 32.3679 21.8665 32.3679 21.9258 32.2509C22.5838 30.8851 22.5225 29.2721 22.0582 27.8501C21.5613 26.4817 20.8566 25.3283 19.8418 24.2814C19.7956 24.2287 19.7494 24.176 19.7017 24.1217C18.8511 23.1865 17.6622 22.6191 16.502 22.172C16.4005 22.1314 16.2989 22.0909 16.1944 22.0491C14.4588 21.4099 12.5419 21.2723 10.7067 21.2656C10.6412 21.2653 10.5756 21.265 10.5081 21.2647C9.4292 21.2632 8.36709 21.3354 7.29543 21.4579Z" fill="#040404"/>
<path d="M42.8691 13.1191C42.9874 13.5099 42.9098 13.8495 42.8365 14.2428C42.8227 14.3198 42.8089 14.3968 42.7947 14.4761C42.749 14.7289 42.7021 14.9815 42.6549 15.234C42.6389 15.3206 42.6229 15.4072 42.6063 15.4964C41.5961 20.9419 40.191 27.5459 35.3814 30.9412C33.6223 32.1336 31.7073 32.6789 29.5839 32.3524C28.8589 32.1955 27.9689 31.9817 27.4004 31.4883C27.4484 30.9327 27.6318 30.4679 27.8453 29.9557C27.8785 29.8746 27.9116 29.7936 27.9458 29.71C28.027 29.5115 28.1089 29.3133 28.1914 29.1152C28.2204 29.1732 28.2494 29.2313 28.2793 29.291C28.5067 29.3598 28.7295 29.4188 28.9604 29.4723C29.0234 29.4875 29.0864 29.5028 29.1513 29.5185C29.3291 29.5611 29.5072 29.6022 29.6855 29.6426C29.7608 29.6599 29.836 29.6772 29.9135 29.6951C31.4871 29.9582 33.1207 29.4064 34.4086 28.5079C34.6282 28.3361 34.8379 28.1571 35.0469 27.9727C35.1534 27.885 35.1534 27.885 35.2621 27.7955C35.9025 27.2527 36.401 26.6266 36.8926 25.9512C36.9288 25.9016 36.965 25.852 37.0024 25.801C37.6891 24.848 38.232 23.8145 38.7795 22.7775C38.899 22.552 39.02 22.3274 39.142 22.1032C40.6458 19.3245 41.8194 16.3961 42.7249 13.3713C42.7813 13.207 42.7813 13.207 42.8691 13.1191Z" fill="#72B85F"/>
<path d="M5.33984 22.084C5.39785 22.084 5.45586 22.084 5.51562 22.084C5.55415 22.1651 5.59267 22.2462 5.63235 22.3298C6.40667 23.9336 7.34591 25.4086 8.41602 26.8301C8.45567 26.8832 8.49532 26.9363 8.53618 26.991C9.26621 27.9672 10.0519 28.8935 10.8725 29.7943C11.0407 29.9807 11.2034 30.1708 11.3658 30.3622C12.1854 31.2954 13.237 32.0319 14.3431 32.5869C14.4288 32.6299 14.4288 32.6299 14.5162 32.6738C15.6796 33.2353 17.1052 33.3502 18.3477 32.9824C18.8356 32.8054 19.2598 32.568 19.6815 32.2666C19.8929 32.1674 19.9754 32.2038 20.1934 32.2793C20.3382 32.3861 20.3382 32.3861 20.4776 32.5186C20.528 32.5659 20.5785 32.6132 20.6304 32.6619C20.682 32.7115 20.7335 32.7611 20.7866 32.8121C20.8395 32.862 20.8924 32.9119 20.947 32.9634C21.0772 33.0863 21.2066 33.2101 21.3359 33.334C20.711 34.4802 19.6546 35.0036 18.441 35.3939C16.5767 35.8735 14.8271 35.2339 13.2225 34.3087C12.5469 33.8802 11.9776 33.3595 11.4043 32.8066C11.3431 32.751 11.2819 32.6954 11.2189 32.6381C10.188 31.6732 9.41314 30.3992 8.67969 29.2031C8.61859 29.1039 8.61859 29.1039 8.55626 29.0027C5.33984 23.7236 5.33984 23.7236 5.33984 22.084Z" fill="#72B85F"/>
<path d="M40.6108 13.193C40.7598 13.3828 40.7598 13.3828 40.8092 13.641C40.7418 14.0078 40.609 14.1167 40.3203 14.3496C40.0726 14.4122 39.8576 14.45 39.6062 14.476C37.4998 14.7559 35.4358 15.2918 33.4813 16.1304C33.1835 16.231 32.9688 16.2038 32.6738 16.1074C32.4464 15.9093 32.4152 15.7906 32.3717 15.4922C32.4212 15.1528 32.4957 15.0923 32.7617 14.877C33.0219 14.7426 33.2907 14.6363 33.5637 14.5309C33.6422 14.5002 33.7206 14.4695 33.8014 14.4379C34.4837 14.1768 35.1718 13.9687 35.8797 13.7904C36.1299 13.7272 36.3796 13.6619 36.6292 13.5967C40.0183 12.72 40.0183 12.72 40.6108 13.193Z" fill="#FCFEFC"/>
<path d="M9.58022 21.5499C10.7668 21.5239 11.9437 21.5278 13.1237 21.6666C13.2103 21.6762 13.297 21.6858 13.3863 21.6957C13.8413 21.7569 14.158 21.8179 14.4805 22.172C14.5793 22.4741 14.5793 22.4741 14.5684 22.7872C14.4255 23.0509 14.4255 23.0509 14.1289 23.2267C13.6695 23.2445 13.2183 23.1893 12.7695 23.0915C12.3196 23.0326 11.8762 23.0509 11.4232 23.0608C11.2186 23.0636 11.0141 23.0663 10.8095 23.0689C10.4881 23.0732 10.1668 23.0784 9.8455 23.0858C9.53459 23.0927 9.22378 23.0963 8.9128 23.0993C8.81676 23.1023 8.72071 23.1053 8.62175 23.1084C7.97516 23.1107 7.97516 23.1107 7.72811 22.9398C7.52509 22.7103 7.4505 22.5556 7.43823 22.2489C7.56234 21.9317 7.6948 21.8325 7.97656 21.6446C8.49395 21.5285 9.05146 21.5626 9.58022 21.5499Z" fill="#FBFEFA"/>
<path d="M24.3242 24.2812C24.3532 24.2812 24.3822 24.2812 24.4121 24.2812C24.4083 24.3759 24.4044 24.4705 24.4004 24.5679C24.3905 25.5414 24.5924 26.0825 25.2571 26.7876C25.3742 26.913 25.4851 27.0442 25.5955 27.1755C26.2387 27.928 26.9524 28.4957 27.8398 28.9395C27.5788 29.6355 27.3178 30.3316 27.0488 31.0488C25.7723 30.4106 25.0519 28.7683 24.6208 27.4793C24.282 26.415 24.3041 25.3895 24.3242 24.2812Z" fill="#71B75E"/>
<path d="M31.6191 15.6679C31.8588 15.8567 31.876 15.9793 31.9268 16.2777C31.8807 16.5599 31.8153 16.6847 31.6027 16.8744C31.3252 17.0693 31.0214 17.2159 30.7203 17.3708C30.4806 17.5113 30.3062 17.6605 30.1085 17.8542C29.8741 18.0709 29.7221 18.1746 29.3999 18.1948C29.0703 18.1289 29.0703 18.1289 28.8451 17.9476C28.7188 17.6894 28.7188 17.6894 28.6913 17.3983C28.9665 16.6251 29.8313 16.171 30.5305 15.8011C30.9413 15.6173 31.1783 15.5812 31.6191 15.6679Z" fill="#FCFEFB"/>
<path d="M16.0625 22.3476C16.7002 22.5252 17.4138 22.7583 17.8203 23.3144C17.8917 23.5836 17.8917 23.5836 17.8203 23.8418C17.5896 24.0999 17.5896 24.0999 17.293 24.2812C16.8857 24.2903 16.5511 24.1035 16.1895 23.9331C15.8962 23.8085 15.5952 23.7324 15.2859 23.6577C15.0469 23.5577 14.9628 23.4477 14.832 23.2265C14.787 22.918 14.7961 22.7612 14.9529 22.4904C15.3211 22.2625 15.6413 22.2829 16.0625 22.3476Z" fill="#FBFEFA"/>
<path d="M22.2148 28.8516C22.2438 28.8516 22.2729 28.8516 22.3027 28.8516C22.5155 30.2609 22.3522 31.5404 21.6875 32.8066C21.6005 32.8501 21.6005 32.8501 21.5117 32.8945C21.3536 32.7708 21.1963 32.6461 21.0393 32.521C20.9516 32.4517 20.8639 32.3823 20.7736 32.3109C20.5686 32.125 20.466 32.0062 20.3691 31.752C20.4181 31.7028 20.467 31.6536 20.5175 31.603C21.2863 30.7951 21.7891 29.8805 22.2148 28.8516Z" fill="#70B65E"/>
<path d="M42.8691 13.1191C42.9979 13.454 42.9177 13.675 42.7812 13.998C42.6942 14.0416 42.6942 14.0416 42.6055 14.0859C42.6325 13.9412 42.6601 13.7966 42.6879 13.652C42.7032 13.5714 42.7185 13.4909 42.7342 13.4079C42.7812 13.207 42.7812 13.207 42.8691 13.1191Z" fill="#6DB05B"/>
</svg>
